<svg width="1600" height="1000" viewBox="0 0 1600 1000" fill="none" xmlns="http://www.w3.org/2000/svg">
  <defs>
    <linearGradient id="bg" x1="120" y1="80" x2="1480" y2="940" gradientUnits="userSpaceOnUse">
      <stop offset="0" stop-color="#2D1204"/>
      <stop offset="0.5" stop-color="#170903"/>
      <stop offset="1" stop-color="#100603"/>
    </linearGradient>
    <linearGradient id="frame" x1="190" y1="116" x2="1410" y2="884" gradientUnits="userSpaceOnUse">
      <stop offset="0" stop-color="#3B1D09"/>
      <stop offset="1" stop-color="#1A0B03"/>
    </linearGradient>
    <linearGradient id="module" x1="0" y1="0" x2="1" y2="1">
      <stop offset="0" stop-color="#2A1205"/>
      <stop offset="1" stop-color="#200D04"/>
    </linearGradient>
    <linearGradient id="accent" x1="0" y1="0" x2="1" y2="1">
      <stop offset="0" stop-color="#FFE7C2"/>
      <stop offset="0.48" stop-color="#FFC371"/>
      <stop offset="1" stop-color="#FF7B25"/>
    </linearGradient>
    <linearGradient id="trace" x1="300" y1="730" x2="1280" y2="340" gradientUnits="userSpaceOnUse">
      <stop offset="0" stop-color="#FFEED0"/>
      <stop offset="0.5" stop-color="#FFC878"/>
      <stop offset="1" stop-color="#FF7C25"/>
    </linearGradient>
    <pattern id="grid" width="40" height="40" patternUnits="userSpaceOnUse">
      <path d="M40 0H0V40" stroke="#FFD7A7" stroke-opacity="0.09"/>
    </pattern>
  </defs>

  <rect width="1600" height="1000" fill="url(#bg)"/>
  <rect width="1600" height="1000" fill="url(#grid)"/>

  <rect x="190" y="116" width="1220" height="768" rx="44" fill="url(#frame)" stroke="#FFDCB1" stroke-opacity="0.42" stroke-width="2"/>

  <rect x="236" y="158" width="1128" height="74" rx="20" fill="#261005" stroke="#FFD7A6" stroke-opacity="0.26"/>
  <rect x="274" y="186" width="220" height="16" rx="8" fill="#FFE3BA" fill-opacity="0.9"/>
  <rect x="510" y="189" width="166" height="10" rx="5" fill="#FFC172" fill-opacity="0.65"/>
  <rect x="690" y="189" width="120" height="10" rx="5" fill="#FF9F4D" fill-opacity="0.52"/>
  <rect x="1230" y="179" width="96" height="30" rx="15" fill="#311405" stroke="#FFD19A" stroke-opacity="0.4"/>
  <circle cx="1252" cy="194" r="7" fill="#FFC472"/>
  <rect x="1266" y="189" width="44" height="10" rx="5" fill="#FFD39C"/>

  <rect x="252" y="260" width="424" height="524" rx="28" fill="url(#module)" stroke="#FFD3A0" stroke-opacity="0.3"/>
  <rect x="296" y="302" width="260" height="16" rx="8" fill="#FFE0B4" fill-opacity="0.86"/>
  <rect x="296" y="332" width="318" height="12" rx="6" fill="#FFC87A" fill-opacity="0.62"/>
  <rect x="296" y="356" width="210" height="12" rx="6" fill="#FFA85A" fill-opacity="0.46"/>

  <rect x="296" y="404" width="336" height="332" rx="22" fill="#1C0B03" stroke="#FFD099" stroke-opacity="0.22"/>
  <line x1="328" y1="684" x2="600" y2="684" stroke="#FFD8A8" stroke-opacity="0.18" stroke-width="2"/>
  <line x1="328" y1="624" x2="600" y2="624" stroke="#FFD8A8" stroke-opacity="0.12" stroke-width="2"/>
  <line x1="328" y1="564" x2="600" y2="564" stroke="#FFD8A8" stroke-opacity="0.1" stroke-width="2"/>
  <path d="M328 688C364 652 396 654 446 620C498 586 546 572 600 596" stroke="#FFD39D" stroke-width="6" stroke-linecap="round"/>
  <path d="M328 714C362 684 398 686 448 656C500 624 548 612 600 638" stroke="#FFB565" stroke-width="4" stroke-linecap="round"/>

  <rect x="724" y="260" width="624" height="236" rx="28" fill="url(#module)" stroke="#FFD3A0" stroke-opacity="0.3"/>

  <rect x="762" y="304" width="172" height="154" rx="18" fill="#2E1506" stroke="#FFD29A" stroke-opacity="0.28"/>
  <rect x="950" y="286" width="172" height="172" rx="18" fill="#3C1C08" stroke="#FFD29A" stroke-opacity="0.28"/>
  <rect x="1138" y="320" width="172" height="138" rx="18" fill="#58280B" stroke="#FFD29A" stroke-opacity="0.28"/>

  <rect x="786" y="338" width="96" height="12" rx="6" fill="#FFE0B3"/>
  <rect x="786" y="360" width="64" height="10" rx="5" fill="#FFBE71" fill-opacity="0.72"/>
  <rect x="974" y="322" width="106" height="12" rx="6" fill="#FFE0B3"/>
  <rect x="974" y="344" width="74" height="10" rx="5" fill="#FFBE71" fill-opacity="0.72"/>
  <rect x="1162" y="356" width="98" height="12" rx="6" fill="#FFE0B3"/>
  <rect x="1162" y="378" width="64" height="10" rx="5" fill="#FFBE71" fill-opacity="0.72"/>

  <rect x="724" y="526" width="624" height="258" rx="28" fill="#220D04" stroke="#FFD3A0" stroke-opacity="0.3"/>
  <rect x="766" y="568" width="540" height="18" rx="9" fill="#FFD8A3" fill-opacity="0.62"/>
  <rect x="766" y="600" width="460" height="14" rx="7" fill="#FFBF72" fill-opacity="0.46"/>
  <rect x="766" y="626" width="376" height="14" rx="7" fill="#FFA050" fill-opacity="0.34"/>

  <line x1="772" y1="696" x2="1298" y2="696" stroke="#FFD8A8" stroke-opacity="0.18" stroke-width="2"/>
  <circle cx="832" cy="696" r="12" fill="#FFE9C6"/>
  <circle cx="1016" cy="696" r="12" fill="#FFCA82"/>
  <circle cx="1200" cy="696" r="12" fill="#FF9540"/>
  <path d="M832 696C896 658 960 658 1016 696C1072 734 1136 734 1200 696" stroke="#FFB462" stroke-width="5" stroke-linecap="round"/>

  <path d="M300 730C462 624 614 652 760 566C918 474 1056 430 1280 340" stroke="#1B0B03" stroke-width="24" stroke-linecap="round"/>
  <path d="M300 730C462 624 614 652 760 566C918 474 1056 430 1280 340" stroke="url(#trace)" stroke-width="14" stroke-linecap="round"/>
  <path d="M1270 324L1324 338L1282 380" fill="#FF8B34"/>

  <circle cx="300" cy="730" r="14" fill="#FFECCB" stroke="#2A1205" stroke-width="2"/>
  <circle cx="528" cy="634" r="14" fill="#FFD9A6" stroke="#2A1205" stroke-width="2"/>
  <circle cx="760" cy="566" r="14" fill="#FFC472" stroke="#2A1205" stroke-width="2"/>
  <circle cx="1020" cy="446" r="14" fill="#FFA555" stroke="#2A1205" stroke-width="2"/>
  <circle cx="1280" cy="340" r="14" fill="#FF7C26" stroke="#2A1205" stroke-width="2"/>

  <rect x="242" y="812" width="258" height="82" rx="20" fill="#2A1306" stroke="#FFD3A0" stroke-opacity="0.35"/>
  <circle cx="292" cy="853" r="12" fill="#FFD59C"/>
  <rect x="316" y="844" width="150" height="11" rx="5.5" fill="#FFD49C"/>
  <rect x="316" y="864" width="112" height="11" rx="5.5" fill="#FFB968" fill-opacity="0.46"/>

  <rect x="1088" y="812" width="258" height="82" rx="20" fill="#2A1306" stroke="#FFD3A0" stroke-opacity="0.35"/>
  <circle cx="1138" cy="853" r="12" fill="#FFB064"/>
  <rect x="1162" y="844" width="144" height="11" rx="5.5" fill="#FFD49C" fill-opacity="0.72"/>
  <rect x="1162" y="864" width="104" height="11" rx="5.5" fill="#FF9E4A" fill-opacity="0.48"/>
</svg>
