<svg width="1200" height="700" viewBox="0 0 1200 700" fill="none" xmlns="http://www.w3.org/2000/svg">
  <defs>
    <linearGradient id="bg" x1="120" y1="70" x2="1080" y2="640" gradientUnits="userSpaceOnUse">
      <stop offset="0" stop-color="#321705"/>
      <stop offset="0.54" stop-color="#1A0D04"/>
      <stop offset="1" stop-color="#100703"/>
    </linearGradient>
    <linearGradient id="flow" x1="128" y1="352" x2="1072" y2="352" gradientUnits="userSpaceOnUse">
      <stop offset="0" stop-color="#FFE7BE"/>
      <stop offset="0.5" stop-color="#FFBA65"/>
      <stop offset="1" stop-color="#FF7B24"/>
    </linearGradient>
    <radialGradient id="ambient" cx="0" cy="0" r="1" gradientUnits="userSpaceOnUse" gradientTransform="translate(600 350) rotate(90) scale(360 520)">
      <stop offset="0" stop-color="#FFC783" stop-opacity="0.26"/>
      <stop offset="1" stop-color="#FFC783" stop-opacity="0"/>
    </radialGradient>
  </defs>

  <rect width="1200" height="700" fill="url(#bg)"/>
  <ellipse cx="600" cy="350" rx="520" ry="360" fill="url(#ambient)"/>

  <rect x="98" y="128" width="1004" height="444" rx="34" fill="#2A1406" stroke="#FFD3A0" stroke-opacity="0.28" stroke-width="2"/>

  <rect x="140" y="174" width="210" height="132" rx="20" fill="#2E1607" stroke="#FFD7A7" stroke-opacity="0.32"/>
  <rect x="140" y="396" width="210" height="132" rx="20" fill="#2A1306" stroke="#FFC98B" stroke-opacity="0.25"/>

  <rect x="495" y="144" width="210" height="132" rx="20" fill="#2E1607" stroke="#FFD7A7" stroke-opacity="0.32"/>
  <rect x="495" y="426" width="210" height="132" rx="20" fill="#2A1306" stroke="#FFC98B" stroke-opacity="0.25"/>

  <rect x="850" y="174" width="210" height="132" rx="20" fill="#2E1607" stroke="#FFD7A7" stroke-opacity="0.32"/>
  <rect x="850" y="396" width="210" height="132" rx="20" fill="#2A1306" stroke="#FFC98B" stroke-opacity="0.25"/>

  <path d="M350 240H495" stroke="url(#flow)" stroke-width="8" stroke-linecap="round"/>
  <path d="M705 210H850" stroke="url(#flow)" stroke-width="8" stroke-linecap="round"/>
  <path d="M955 306V396" stroke="url(#flow)" stroke-width="8" stroke-linecap="round"/>
  <path d="M705 492H850" stroke="url(#flow)" stroke-width="8" stroke-linecap="round"/>
  <path d="M350 462H495" stroke="url(#flow)" stroke-width="8" stroke-linecap="round"/>
  <path d="M245 306V396" stroke="url(#flow)" stroke-width="8" stroke-linecap="round"/>

  <g>
    <circle cx="350" cy="240" r="10" fill="#FFECC8"/>
    <circle cx="495" cy="240" r="10" fill="#FFD59A"/>
    <circle cx="705" cy="210" r="10" fill="#FFC171"/>
    <circle cx="850" cy="210" r="10" fill="#FFA856"/>
    <circle cx="955" cy="396" r="10" fill="#FF8E39"/>
    <circle cx="850" cy="492" r="10" fill="#FFA34D"/>
    <circle cx="705" cy="492" r="10" fill="#FFB964"/>
    <circle cx="495" cy="462" r="10" fill="#FFCC87"/>
    <circle cx="350" cy="462" r="10" fill="#FFD8A6"/>
    <circle cx="245" cy="396" r="10" fill="#FFE4BC"/>
  </g>

  <g opacity="0.94">
    <rect x="176" y="224" width="138" height="14" rx="7" fill="#FFD9A7"/>
    <rect x="176" y="250" width="104" height="11" rx="5.5" fill="#FFBF72" fill-opacity="0.68"/>

    <rect x="531" y="194" width="138" height="14" rx="7" fill="#FFD9A7"/>
    <rect x="531" y="220" width="104" height="11" rx="5.5" fill="#FFBF72" fill-opacity="0.68"/>

    <rect x="886" y="224" width="138" height="14" rx="7" fill="#FFD9A7"/>
    <rect x="886" y="250" width="104" height="11" rx="5.5" fill="#FFBF72" fill-opacity="0.68"/>
  </g>
</svg>
