<svg xmlns="http://www.w3.org/2000/svg" viewBox="0 0 512 488"><path d="M 264,70 L 178,120 L 213,141 L 186,156 L 149,136 L 99,166 L 99,224 L 135,246 L 134,270 L 99,251 L 99,357 L 187,409 L 187,369 L 191,369 L 214,383 L 214,424 L 263,453 L 268,453 L 317,424 L 317,383 L 339,372 L 339,411 L 432,358 L 433,257 L 429,257 L 398,276 L 396,274 L 396,248 L 402,242 L 433,224 L 433,166 L 382,136 L 346,156 L 337,152 L 325,143 L 359,123 Z M 414,282 L 415,283 L 415,347 L 413,349 L 408,351 L 406,353 L 401,355 L 399,357 L 398,357 L 397,358 L 394,359 L 392,361 L 387,363 L 382,367 L 380,367 L 375,371 L 368,374 L 363,378 L 362,378 L 361,379 L 356,381 L 354,383 L 353,383 L 352,382 L 352,318 L 354,316 L 359,314 L 364,310 L 366,310 L 368,308 L 369,308 L 374,305 L 375,306 L 375,324 L 372,327 L 367,329 L 363,332 L 363,356 L 364,356 L 365,355 L 370,353 L 375,349 L 380,347 L 382,345 L 387,343 L 389,341 L 394,339 L 396,337 L 396,293 L 399,290 L 404,288 L 406,286 L 407,286 L 408,285 L 411,284 L 413,282 Z M 118,276 L 119,277 L 122,278 L 124,280 L 129,282 L 134,286 L 135,286 L 136,287 L 139,288 L 141,290 L 144,291 L 146,293 L 147,293 L 148,294 L 153,296 L 155,298 L 160,300 L 165,304 L 167,304 L 169,306 L 170,306 L 174,309 L 174,334 L 173,335 L 171,333 L 168,332 L 166,330 L 163,329 L 161,327 L 158,326 L 156,324 L 156,310 L 155,309 L 150,307 L 148,305 L 145,304 L 143,302 L 142,302 L 138,299 L 135,298 L 135,337 L 136,338 L 141,340 L 143,342 L 146,343 L 148,345 L 153,347 L 155,349 L 160,351 L 162,353 L 165,354 L 167,356 L 168,356 L 170,358 L 171,358 L 174,360 L 174,379 L 173,380 L 168,378 L 163,374 L 158,372 L 156,370 L 155,370 L 151,367 L 146,365 L 144,363 L 141,362 L 139,360 L 138,360 L 137,359 L 132,357 L 130,355 L 125,353 L 117,347 L 117,277 Z M 374,212 L 375,213 L 375,288 L 372,291 L 370,291 L 365,295 L 353,301 L 348,305 L 346,305 L 339,310 L 339,345 L 337,347 L 329,351 L 327,353 L 322,355 L 320,357 L 312,361 L 310,363 L 308,363 L 303,367 L 298,369 L 296,371 L 291,373 L 289,375 L 286,376 L 284,378 L 278,381 L 277,380 L 277,322 L 281,319 L 284,318 L 286,316 L 291,314 L 293,312 L 295,312 L 297,310 L 307,305 L 309,303 L 312,302 L 314,300 L 319,298 L 323,295 L 323,242 L 325,240 L 327,240 L 328,238 L 330,238 L 335,234 L 337,234 L 339,232 L 344,230 L 346,228 L 351,226 L 356,222 L 361,220 L 363,218 L 368,216 L 370,214 Z M 157,212 L 158,212 L 163,216 L 165,216 L 167,218 L 175,222 L 177,224 L 179,224 L 184,228 L 189,230 L 191,232 L 196,234 L 198,236 L 203,238 L 208,242 L 208,295 L 209,296 L 211,296 L 216,300 L 221,302 L 228,307 L 235,310 L 240,314 L 247,317 L 254,322 L 254,380 L 253,381 L 251,379 L 246,377 L 244,375 L 232,369 L 227,365 L 220,362 L 218,360 L 213,358 L 211,356 L 204,353 L 199,349 L 194,347 L 187,342 L 187,301 L 185,299 L 180,297 L 178,295 L 176,295 L 171,291 L 166,289 L 161,285 L 159,285 L 156,282 L 156,213 Z M 168,192 L 170,190 L 175,188 L 180,184 L 182,184 L 187,180 L 189,180 L 191,178 L 194,177 L 201,172 L 206,170 L 208,168 L 210,168 L 215,164 L 227,158 L 234,153 L 240,156 L 242,158 L 247,160 L 249,162 L 254,164 L 259,168 L 261,168 L 263,170 L 264,170 L 266,172 L 270,174 L 272,174 L 274,172 L 279,170 L 281,168 L 283,168 L 284,166 L 286,166 L 288,164 L 291,163 L 298,158 L 300,158 L 302,156 L 308,159 L 310,161 L 313,162 L 315,164 L 320,166 L 322,168 L 327,170 L 334,175 L 341,178 L 346,182 L 351,184 L 353,186 L 358,188 L 360,190 L 364,192 L 358,195 L 356,197 L 351,199 L 349,201 L 344,203 L 339,207 L 330,211 L 325,215 L 320,217 L 318,219 L 314,221 L 310,221 L 305,217 L 300,215 L 298,213 L 286,207 L 281,203 L 274,200 L 267,195 L 265,195 L 261,197 L 256,201 L 251,203 L 249,205 L 237,211 L 235,213 L 232,214 L 225,219 L 221,221 L 217,221 L 212,217 L 207,215 L 205,213 L 200,211 L 198,209 L 193,207 L 191,205 L 186,203 L 184,201 L 181,200 L 179,198 L 174,196 L 172,194 Z M 209,123 L 212,120 L 217,118 L 219,116 L 220,116 L 221,115 L 224,114 L 226,112 L 231,110 L 236,106 L 238,106 L 240,104 L 241,104 L 245,101 L 250,99 L 252,97 L 259,94 L 264,90 L 267,90 L 268,91 L 271,92 L 273,94 L 276,95 L 278,97 L 279,97 L 280,98 L 283,99 L 285,101 L 288,102 L 290,104 L 295,106 L 297,108 L 298,108 L 299,109 L 302,110 L 304,112 L 309,114 L 311,116 L 314,117 L 316,119 L 323,122 L 325,124 L 326,124 L 327,125 L 327,126 L 326,127 L 323,128 L 321,130 L 318,131 L 316,133 L 313,134 L 311,136 L 309,136 L 307,138 L 304,139 L 302,141 L 299,142 L 297,144 L 296,144 L 295,145 L 292,146 L 290,148 L 285,150 L 283,152 L 280,153 L 278,155 L 275,156 L 273,158 L 269,158 L 267,156 L 264,155 L 262,153 L 259,152 L 257,150 L 250,147 L 249,146 L 249,145 L 250,144 L 253,143 L 258,139 L 259,139 L 266,135 L 270,138 L 273,139 L 275,141 L 276,141 L 277,142 L 280,142 L 284,139 L 287,138 L 289,136 L 291,136 L 296,132 L 299,131 L 299,129 L 298,129 L 297,128 L 294,127 L 292,125 L 285,122 L 283,120 L 278,118 L 273,114 L 271,114 L 267,111 L 264,111 L 262,113 L 259,114 L 257,116 L 252,118 L 247,122 L 245,122 L 243,124 L 238,126 L 236,128 L 231,130 L 227,133 L 226,133 L 224,131 L 221,130 L 219,128 L 214,126 L 212,124 L 210,124 Z" fill="black" fill-rule="evenodd"/></svg>